<svg xmlns="http://www.w3.org/2000/svg" viewBox="0 0 32 32" role="img" aria-label="SeaRIA">
  <rect width="32" height="32" rx="8" fill="#0f766e"/>
  <circle cx="16" cy="10" r="2.6" fill="#fff"/>
  <path d="M11.5 13.2c1.6 1.2 3.2 1.8 4.5 1.8 1.3 0 2.9-.6 4.5-1.8" fill="none" stroke="#fff" stroke-width="2" stroke-linecap="round"/>
  <path d="M9.2 13.8c2.2 1.8 2.2 4.6 0 6.4" fill="none" stroke="#fff" stroke-width="2" stroke-linecap="round"/>
  <path d="M5 21.2c2.4-1.8 4.2 1.6 6.6 0s4.2 1.6 6.6 0 4.2 1.6 6.6 0" fill="none" stroke="#fff" stroke-width="1.9" stroke-linecap="round"/>
  <path d="M5 25.2c2.4-1.8 4.2 1.6 6.6 0s4.2 1.6 6.6 0 4.2 1.6 6.6 0" fill="none" stroke="#fff" stroke-width="1.6" stroke-linecap="round" opacity=".75"/>
</svg>
